<svg width="30" height="26" viewBox="0 0 30 26" fill="none" xmlns="http://www.w3.org/2000/svg">
<path d="M3.99983 17.3333C2.88872 17.3333 1.94428 16.9444 1.1665 16.1667C0.388721 15.3889 -0.000167847 14.4444 -0.000167847 13.3333C-0.000167847 12.2222 0.388721 11.2778 1.1665 10.5C1.94428 9.72222 2.88872 9.33333 3.99983 9.33333V6.66667C3.99983 5.93333 4.26094 5.30556 4.78317 4.78333C5.30539 4.26111 5.93317 4 6.6665 4H10.6665C10.6665 2.88889 11.0554 1.94444 11.8332 1.16667C12.6109 0.388889 13.5554 0 14.6665 0C15.7776 0 16.7221 0.388889 17.4998 1.16667C18.2776 1.94444 18.6665 2.88889 18.6665 4H22.6665C23.3998 4 24.0276 4.26111 24.5498 4.78333C25.0721 5.30556 25.3332 5.93333 25.3332 6.66667V9.33333C26.4443 9.33333 27.3887 9.72222 28.1665 10.5C28.9443 11.2778 29.3332 12.2222 29.3332 13.3333C29.3332 14.4444 28.9443 15.3889 28.1665 16.1667C27.3887 16.9444 26.4443 17.3333 25.3332 17.3333V22.6667C25.3332 23.4 25.0721 24.0278 24.5498 24.55C24.0276 25.0722 23.3998 25.3333 22.6665 25.3333H6.6665C5.93317 25.3333 5.30539 25.0722 4.78317 24.55C4.26094 24.0278 3.99983 23.4 3.99983 22.6667V17.3333V17.3333M10.6665 14.6667C11.2221 14.6667 11.6943 14.4722 12.0832 14.0833C12.4721 13.6944 12.6665 13.2222 12.6665 12.6667C12.6665 12.1111 12.4721 11.6389 12.0832 11.25C11.6943 10.8611 11.2221 10.6667 10.6665 10.6667C10.1109 10.6667 9.63872 10.8611 9.24983 11.25C8.86094 11.6389 8.6665 12.1111 8.6665 12.6667C8.6665 13.2222 8.86094 13.6944 9.24983 14.0833C9.63872 14.4722 10.1109 14.6667 10.6665 14.6667V14.6667M18.6665 14.6667C19.2221 14.6667 19.6943 14.4722 20.0832 14.0833C20.4721 13.6944 20.6665 13.2222 20.6665 12.6667C20.6665 12.1111 20.4721 11.6389 20.0832 11.25C19.6943 10.8611 19.2221 10.6667 18.6665 10.6667C18.1109 10.6667 17.6387 10.8611 17.2498 11.25C16.8609 11.6389 16.6665 12.1111 16.6665 12.6667C16.6665 13.2222 16.8609 13.6944 17.2498 14.0833C17.6387 14.4722 18.1109 14.6667 18.6665 14.6667V14.6667M9.33317 20H19.9998V17.3333H9.33317V20V20M6.6665 22.6667H22.6665V22.6667V22.6667V6.66667V6.66667V6.66667H6.6665V6.66667V6.66667V22.6667V22.6667V22.6667V22.6667M14.6665 14.6667V14.6667V14.6667V14.6667V14.6667V14.6667V14.6667V14.6667V14.6667V14.6667V14.6667V14.6667V14.6667V14.6667" fill="#4E3D00"/>
</svg>
