<svg width="26" height="23" viewBox="0 0 26 23" fill="none" xmlns="http://www.w3.org/2000/svg">
<path d="M3.50017 15.1667C2.52795 15.1667 1.70156 14.8264 1.021 14.1458C0.340446 13.4653 0.000167847 12.6389 0.000167847 11.6667C0.000167847 10.6944 0.340446 9.86806 1.021 9.1875C1.70156 8.50694 2.52795 8.16667 3.50017 8.16667V5.83333C3.50017 5.19167 3.72864 4.64236 4.18558 4.18542C4.64253 3.72847 5.19183 3.5 5.8335 3.5H9.3335C9.3335 2.52778 9.67378 1.70139 10.3543 1.02083C11.0349 0.340278 11.8613 0 12.8335 0C13.8057 0 14.6321 0.340278 15.3127 1.02083C15.9932 1.70139 16.3335 2.52778 16.3335 3.5H19.8335C20.4752 3.5 21.0245 3.72847 21.4814 4.18542C21.9384 4.64236 22.1668 5.19167 22.1668 5.83333V8.16667C23.1391 8.16667 23.9654 8.50694 24.646 9.1875C25.3266 9.86806 25.6668 10.6944 25.6668 11.6667C25.6668 12.6389 25.3266 13.4653 24.646 14.1458C23.9654 14.8264 23.1391 15.1667 22.1668 15.1667V19.8333C22.1668 20.475 21.9384 21.0243 21.4814 21.4813C21.0245 21.9382 20.4752 22.1667 19.8335 22.1667H5.8335C5.19183 22.1667 4.64253 21.9382 4.18558 21.4813C3.72864 21.0243 3.50017 20.475 3.50017 19.8333V15.1667V15.1667M9.3335 12.8333C9.81961 12.8333 10.2328 12.6632 10.5731 12.3229C10.9134 11.9826 11.0835 11.5694 11.0835 11.0833C11.0835 10.5972 10.9134 10.184 10.5731 9.84375C10.2328 9.50347 9.81961 9.33333 9.3335 9.33333C8.84739 9.33333 8.4342 9.50347 8.09392 9.84375C7.75364 10.184 7.5835 10.5972 7.5835 11.0833C7.5835 11.5694 7.75364 11.9826 8.09392 12.3229C8.4342 12.6632 8.84739 12.8333 9.3335 12.8333V12.8333M16.3335 12.8333C16.8196 12.8333 17.2328 12.6632 17.5731 12.3229C17.9134 11.9826 18.0835 11.5694 18.0835 11.0833C18.0835 10.5972 17.9134 10.184 17.5731 9.84375C17.2328 9.50347 16.8196 9.33333 16.3335 9.33333C15.8474 9.33333 15.4342 9.50347 15.0939 9.84375C14.7536 10.184 14.5835 10.5972 14.5835 11.0833C14.5835 11.5694 14.7536 11.9826 15.0939 12.3229C15.4342 12.6632 15.8474 12.8333 16.3335 12.8333V12.8333M8.16683 17.5H17.5002V15.1667H8.16683V17.5V17.5M5.8335 19.8333H19.8335V19.8333V19.8333V5.83333V5.83333V5.83333H5.8335V5.83333V5.83333V19.8333V19.8333V19.8333V19.8333M12.8335 12.8333V12.8333V12.8333V12.8333V12.8333V12.8333V12.8333V12.8333V12.8333V12.8333V12.8333V12.8333V12.8333V12.8333" fill="white"/>
</svg>
