<svg width="30" height="26" viewBox="0 0 30 26" fill="none" xmlns="http://www.w3.org/2000/svg">
<path d="M-0.000152588 25.3333L14.6665 0L29.3332 25.3333H-0.000152588V25.3333M4.59985 22.6667H24.7332L14.6665 5.33333L4.59985 22.6667V22.6667M14.6665 21.3333C15.0443 21.3333 15.361 21.2056 15.6165 20.95C15.8721 20.6944 15.9998 20.3778 15.9998 20C15.9998 19.6222 15.8721 19.3056 15.6165 19.05C15.361 18.7944 15.0443 18.6667 14.6665 18.6667C14.2887 18.6667 13.9721 18.7944 13.7165 19.05C13.461 19.3056 13.3332 19.6222 13.3332 20C13.3332 20.3778 13.461 20.6944 13.7165 20.95C13.9721 21.2056 14.2887 21.3333 14.6665 21.3333V21.3333M13.3332 17.3333H15.9998V10.6667H13.3332V17.3333V17.3333M14.6665 14V14V14V14V14" fill="white"/>
</svg>
