<svg width="22" height="27" viewBox="0 0 22 27" fill="none" xmlns="http://www.w3.org/2000/svg">
<path d="M5.33317 21.3333H15.9998V18.6667H5.33317V21.3333V21.3333M5.33317 16H15.9998V13.3333H5.33317V16V16M2.6665 26.6667C1.93317 26.6667 1.30539 26.4056 0.783166 25.8833C0.260943 25.3611 -0.000167847 24.7333 -0.000167847 24V2.66667C-0.000167847 1.93333 0.260943 1.30556 0.783166 0.783333C1.30539 0.261111 1.93317 0 2.6665 0H13.3332L21.3332 8V24C21.3332 24.7333 21.0721 25.3611 20.5498 25.8833C20.0276 26.4056 19.3998 26.6667 18.6665 26.6667H2.6665V26.6667M11.9998 9.33333V2.66667H2.6665V2.66667V2.66667V24V24V24H18.6665V24V24V9.33333H11.9998V9.33333M2.6665 2.66667V2.66667V9.33333V9.33333V2.66667V9.33333V9.33333V24V24V24V24V24V24V2.66667V2.66667V2.66667V2.66667" fill="#012D1D"/>
</svg>
