<svg width="24" height="24" viewBox="0 0 24 24" fill="none" xmlns="http://www.w3.org/2000/svg">
<path fill-rule="evenodd" clip-rule="evenodd" d="M20.9998 10.1503V17.9667C20.9998 20.1941 19.209 21.9998 16.9999 21.9998H6.99994C4.79082 21.9998 2.99997 20.1941 2.99997 17.9667V10.1503C2.99997 8.93931 3.53961 7.79245 4.46982 7.02648L9.46978 2.90934C10.9422 1.69689 13.0576 1.69689 14.53 2.90934L19.53 7.02648C20.4602 7.79245 20.9998 8.93931 20.9998 10.1503ZM9.99991 17.2499C9.5857 17.2499 9.24992 17.5857 9.24992 17.9999C9.24992 18.4141 9.5857 18.7499 9.99991 18.7499H13.9999C14.4141 18.7499 14.7499 18.4141 14.7499 17.9999C14.7499 17.5857 14.4141 17.2499 13.9999 17.2499H9.99991Z" fill="black"/>
</svg>
