<svg width="24" height="24" viewBox="0 0 24 24" fill="none" xmlns="http://www.w3.org/2000/svg">
<path fill-rule="evenodd" clip-rule="evenodd" d="M2.74999 11.4999C2.74999 16.3324 6.66746 20.2498 11.4999 20.2498C16.3324 20.2498 20.2498 16.3324 20.2498 11.4999C20.2498 6.66746 16.3324 2.74999 11.4999 2.74999C6.66746 2.74999 2.74999 6.66746 2.74999 11.4999ZM11.4999 21.7498C5.83904 21.7498 1.25 17.1608 1.25 11.4999C1.25 5.83904 5.83904 1.25 11.4999 1.25C17.1608 1.25 21.7498 5.83904 21.7498 11.4999C21.7498 14.0604 20.811 16.4016 19.2587 18.1981L22.5302 21.4695C22.823 21.7624 22.823 22.2373 22.5302 22.5302C22.2373 22.823 21.7624 22.823 21.4695 22.5302L18.1981 19.2587C16.4016 20.811 14.0604 21.7498 11.4999 21.7498Z" fill="#064E3B"/>
</svg>
