<svg width="24" height="24" viewBox="0 0 24 24" fill="none" xmlns="http://www.w3.org/2000/svg">
<path d="M14.5768 19.4999C14.8105 19.5001 14.9996 19.6899 14.9996 19.9237C14.9996 19.9742 14.9912 20.0244 14.9723 20.0712C14.5149 21.1988 13.3561 21.9999 11.9996 21.9999C10.6432 21.9998 9.48528 21.1988 9.02794 20.0712C9.00901 20.0243 8.99967 19.9742 8.99962 19.9237C8.99962 19.6898 9.18956 19.4999 9.42345 19.4999H14.5768ZM11.9996 1.99988C13.2533 1.99988 14.2701 3.01674 14.2701 4.27039V4.3739C14.29 4.38071 14.3099 4.38743 14.3297 4.39441C13.8069 5.12958 13.4996 6.02904 13.4996 6.99988C13.4996 9.48508 15.5144 11.4998 17.9996 11.4999C18.1763 11.4999 18.3507 11.4894 18.5221 11.4696L18.6861 12.9149C18.7667 13.6245 19.0667 14.3014 19.5524 14.8719C20.6494 16.1607 19.6053 17.9999 17.777 17.9999H6.22228C4.39421 17.9996 3.35094 16.1606 4.44787 14.8719C4.9334 14.3015 5.23257 13.6244 5.3131 12.9149L5.76037 8.97546C6.00149 6.85093 7.58771 5.10743 9.73009 4.3739V4.27039C9.73009 3.01683 10.7461 2.00003 11.9996 1.99988ZM17.9996 3.99988C19.6564 3.99988 20.9996 5.34306 20.9996 6.99988C20.9996 8.65672 19.6565 9.99988 17.9996 9.99988C16.3429 9.99975 14.9996 8.65664 14.9996 6.99988C14.9997 5.34314 16.3429 4 17.9996 3.99988Z" fill="#064E3B"/>
</svg>
